<?xml version="1.0" encoding="UTF-8"?>
<svg xmlns="http://www.w3.org/2000/svg" class="storyink" viewBox="0 0 478 868" width="478" height="868" role="img" aria-label="Agent run lifecycle" data-storyink="lifecycle"><style>svg.storyink{--si-bg:#e8e7e3;--si-panel:#e6e5e1;--si-panelAlt:#ecebe7;--si-line:#b7b5ad;--si-lineSoft:#cfcdc6;--si-ink:#3d3a34;--si-inkMuted:#6b675f;--si-inkFaint:#a39d91;--si-wire:#a9a79f;--si-port:#a39d91;--si-pill:#e8e7e3;--si-group:#e3e2de;--si-groupLine:#cfcdc6;--si-title:#1c1a17;--si-chrome:#ecebe7;--si-chromeLine:#cfcdc6;--si-rose:#c98f81;--si-roseFill:#d9d3c7;--si-blue:#7fa2bf;--si-blueFill:#d9d3c7;--si-gold:#bfa95a;--si-goldFill:#d9d3c7;--si-sage:#5f7a4f;--si-sageFill:#d9d3c7;--si-plain:#8a857c;--si-plainFill:#d9d3c7;--si-pulse:#2b2925;--si-pulseBloom:#3d3a34;--si-pulseBloomEdge:#8a857c;--si-glow:#f3d9b6;--si-glowCrest:#fffaf0;--si-glowGain:3;--si-glowBlend:screen;--si-flash:#141311;--si-portActive:#141311;--si-playInk:#a39e94;--si-playInkHover:#5e5b54;--si-control:#8f8a81;--si-controlHover:#26251f;--si-endedInk:#6f6a61;color-scheme:light;}
.storyink{font-family:"Commit Mono", ui-monospace, "SF Mono", Menlo, monospace;font-variant-ligatures:none;font-feature-settings:"calt" 0;}
.storyink text{font-family:"Commit Mono", ui-monospace, "SF Mono", Menlo, monospace;fill:var(--si-ink);}
.si-bg{fill:var(--si-bg);}
.si-a-rose{--si-accent:var(--si-rose);--si-accentFill:var(--si-roseFill);}.si-a-blue{--si-accent:var(--si-blue);--si-accentFill:var(--si-blueFill);}.si-a-gold{--si-accent:var(--si-gold);--si-accentFill:var(--si-goldFill);}.si-a-sage{--si-accent:var(--si-sage);--si-accentFill:var(--si-sageFill);}.si-a-plain{--si-accent:var(--si-plain);--si-accentFill:var(--si-plainFill);}
.si-face{fill:var(--si-panel);stroke:var(--si-line);stroke-width:1;}
.si-inset{fill:none;stroke:var(--si-lineSoft);stroke-width:1;}
.si-ink-bar{fill:var(--si-accent);}
.si-soft{fill:var(--si-accentFill);stroke:var(--si-accent);stroke-width:1;}
.si-dash{stroke-dasharray:4 3;}
.si-glyph{fill:none;stroke:var(--si-accent);stroke-width:1.2;stroke-linecap:round;stroke-linejoin:round;}
.si-dotfill{fill:var(--si-ink);}
.si-ring{fill:none;stroke:var(--si-ink);stroke-width:1.4;}
.si-note{fill:var(--si-goldFill);stroke:var(--si-gold);stroke-width:1;}
.si-note-fold{fill:none;stroke:var(--si-gold);stroke-width:1;}
.storyink .si-label{font-size:13px;fill:var(--si-ink);}
.storyink .si-detail{font-size:11px;fill:var(--si-inkMuted);}
.storyink .si-tag{font-size:10px;letter-spacing:0.08em;fill:var(--si-accent);}
.storyink .si-pill-label{font-size:12px;}
.si-group{fill:var(--si-group);stroke:var(--si-groupLine);stroke-width:1;}
.si-band{fill:var(--si-panelAlt);fill-opacity:0.75;stroke:none;}
.si-group-composite{fill:var(--si-panelAlt);stroke:var(--si-line);stroke-width:1;}
.storyink .si-group-label{font-size:10px;letter-spacing:0.08em;fill:var(--si-inkFaint);}
.storyink .si-group-title{font-size:12px;fill:var(--si-inkMuted);}
.si-group-rule{stroke:var(--si-groupLine);stroke-width:1;}
.si-wire{fill:none;stroke:var(--si-wire);stroke-width:1;stroke-linecap:round;stroke-linejoin:round;}
.si-wire.si-dashed{stroke-dasharray:3 5;}
.si-wire.si-thick{stroke-width:2;stroke:var(--si-port);}
.si-arrow{fill:var(--si-wire);stroke:var(--si-wire);stroke-width:1;stroke-linejoin:round;}
.si-arrow-open{fill:none;stroke:var(--si-wire);stroke-width:1;stroke-linecap:round;stroke-linejoin:round;}
.si-port{fill:var(--si-port);}
.si-pill{fill:var(--si-bg);stroke:none;}
.si-pill.si-on-group{fill:var(--si-group);}
.si-pill.si-on-composite{fill:var(--si-panelAlt);}
.storyink .si-edge-label{font-size:11px;letter-spacing:0.02em;fill:var(--si-inkMuted);}
.si-life{stroke:var(--si-line);stroke-width:1;stroke-dasharray:3 4;}
.si-act{fill:var(--si-panelAlt);stroke:var(--si-line);stroke-width:1;}
.si-frame{fill:none;stroke:var(--si-line);stroke-width:1;}
.si-frame-tag{fill:var(--si-panelAlt);stroke:var(--si-line);stroke-width:1;}
.storyink .si-frame-kind{font-size:10px;letter-spacing:0.08em;fill:var(--si-inkMuted);font-weight:700;}
.storyink .si-frame-label{font-size:11px;fill:var(--si-inkMuted);}
.si-frame-rule{stroke:var(--si-line);stroke-width:1;stroke-dasharray:4 4;}
.si-seq{fill:var(--si-ink);}
.si-pulse{fill:var(--si-pulse);}
.si-halo{fill:var(--si-pulseBloom);}
.si-ring-pulse{fill:none;stroke:var(--si-pulse);}
.si-trail{fill:none;stroke:var(--si-pulse);stroke-width:1.6;stroke-linecap:round;stroke-linejoin:round;}
.storyink .si-counter{font-size:15px;font-variant-numeric:tabular-nums lining-nums;fill:var(--si-ink);}
.storyink .si-counter-label{font-size:10px;letter-spacing:0.08em;fill:var(--si-inkMuted);}
.storyink .si-seq-text{font-size:8.5px;fill:var(--si-bg);font-weight:700;}</style><rect class="si-bg" x="0" y="0" width="478" height="868"></rect><g class="si-bands"></g><g class="si-groups"><g class="si-grp" data-si="group:running"><rect class="si-group-composite" x="32" y="241" width="392" height="382" rx="0"></rect><line class="si-group-rule" x1="32" x2="424" y1="265" y2="265"></line><text class="si-group-title" x="44" y="257">Running</text></g></g><g class="si-frames"></g><g class="si-lifelines"></g><g class="si-activations"></g><g class="si-frame-labels"></g><g class="si-edges"><g class="si-edge" data-si="edge:start-&gt;queued"><path class="si-wire" d="M228 50L228 106"></path></g><g class="si-edge" data-si="edge:queued-&gt;planning"><path class="si-wire" d="M228 148V199.5Q228 211.5 216 211.5H194.17Q182.17 211.5 182.17 223.5V275"></path></g><g class="si-edge" data-si="edge:planning-&gt;tool"><path class="si-wire" d="M182.17 317L182.17 410"></path></g><g class="si-edge" data-si="edge:tool-&gt;observe"><path class="si-wire" d="M203.5 452V525Q203.5 537 215.5 537H314Q326 537 326 549V554"></path></g><g class="si-edge" data-si="edge:observe-&gt;planning"><path class="si-wire" d="M406 575L418 575Q430 575 430 563L430 308Q430 296 418 296L246.17 296"></path></g><g class="si-edge" data-si="edge:tool-&gt;approval"><path class="si-wire" d="M160.84 452V486.5Q160.84 498.5 148.84 498.5H146Q134 498.5 134 510.5V545"></path></g><g class="si-edge" data-si="edge:approval-&gt;tool"><path class="si-wire" d="M218 575L228 575Q238 575 238 565L238 471.09Q238 460 249.09 460L249.09 460Q260.17 460 260.17 448.92L260.17 438Q260.17 431 253.17 431L246.17 431"></path></g><g class="si-edge" data-si="edge:running-&gt;done"><path class="si-wire" d="M162.67 623L162.67 716"></path></g><g class="si-edge" data-si="edge:running-&gt;failed"><path class="si-wire" d="M293.33 623L293.33 716"></path></g><g class="si-edge" data-si="edge:done-&gt;end"><path class="si-wire" d="M150 758V774Q150 786 162 786H216Q228 786 228 798V814"></path></g><g class="si-edge" data-si="edge:failed-&gt;end"><path class="si-wire" d="M306 758V788Q306 800 294 800H240Q228 800 228 812V814"></path></g></g><g class="si-nodes"><g class="si-node si-a-plain" data-si="node:start" data-box="219,32,18,18" transform="translate(219 32)"><circle class="si-dotfill" cx="9" cy="9" r="9"></circle></g><g class="si-node si-a-blue" data-si="node:queued" data-box="164,106,128,42" transform="translate(164 106)"><rect class="si-face" x="0" y="0" width="128" height="42" rx="0"></rect><rect class="si-inset" x="4" y="4" width="120" height="34"></rect><rect class="si-ink-bar" x="5" y="5" width="2" height="32"></rect><text class="si-label" x="64" y="25.05" text-anchor="middle">Queued</text></g><g class="si-node si-a-blue" data-si="node:planning" data-box="118.17,275,128,42" transform="translate(118.17 275)"><rect class="si-face" x="0" y="0" width="128" height="42" rx="0"></rect><rect class="si-inset" x="4" y="4" width="120" height="34"></rect><rect class="si-ink-bar" x="5" y="5" width="2" height="32"></rect><text class="si-label" x="64" y="25.05" text-anchor="middle">Planning</text></g><g class="si-node si-a-blue" data-si="node:tool" data-box="118.17,410,128,42" transform="translate(118.17 410)"><rect class="si-face" x="0" y="0" width="128" height="42" rx="0"></rect><rect class="si-inset" x="4" y="4" width="120" height="34"></rect><rect class="si-ink-bar" x="5" y="5" width="2" height="32"></rect><text class="si-label" x="64" y="25.05" text-anchor="middle">Calling tool</text></g><g class="si-node si-a-blue" data-si="node:observe" data-box="246,554,160,42" transform="translate(246 554)"><rect class="si-face" x="0" y="0" width="160" height="42" rx="0"></rect><rect class="si-inset" x="4" y="4" width="152" height="34"></rect><rect class="si-ink-bar" x="5" y="5" width="2" height="32"></rect><text class="si-label" x="80" y="25.05" text-anchor="middle">Observing result</text></g><g class="si-node si-a-blue" data-si="node:approval" data-box="50,545,168,60" transform="translate(50 545)"><rect class="si-face" x="0" y="0" width="168" height="60" rx="0"></rect><rect class="si-inset" x="4" y="4" width="160" height="52"></rect><rect class="si-ink-bar" x="5" y="5" width="2" height="50"></rect><text class="si-label" x="84" y="25.05" text-anchor="middle">Awaiting approval</text><text class="si-detail" x="84" y="43.85" text-anchor="middle">human in the loop</text></g><g class="si-node si-a-blue" data-si="node:done" data-box="86,716,128,42" transform="translate(86 716)"><rect class="si-face" x="0" y="0" width="128" height="42" rx="0"></rect><rect class="si-inset" x="4" y="4" width="120" height="34"></rect><rect class="si-ink-bar" x="5" y="5" width="2" height="32"></rect><text class="si-label" x="64" y="25.05" text-anchor="middle">Completed</text></g><g class="si-node si-a-blue" data-si="node:failed" data-box="242,716,128,42" transform="translate(242 716)"><rect class="si-face" x="0" y="0" width="128" height="42" rx="0"></rect><rect class="si-inset" x="4" y="4" width="120" height="34"></rect><rect class="si-ink-bar" x="5" y="5" width="2" height="32"></rect><text class="si-label" x="64" y="25.05" text-anchor="middle">Failed</text></g><g class="si-node si-a-plain" data-si="node:end" data-box="217,814,22,22" transform="translate(217 814)"><circle class="si-ring" cx="11" cy="11" r="10.3"></circle><circle class="si-dotfill" cx="11" cy="11" r="6"></circle></g></g><g class="si-ports"><circle class="si-port" data-si="port:start-&gt;queued:out" cx="228" cy="50" r="3.5"></circle><circle class="si-port" data-si="port:start-&gt;queued:in" cx="228" cy="106" r="3.5"></circle><circle class="si-port" data-si="port:planning-&gt;tool:out" cx="182.17" cy="317" r="3.5"></circle><circle class="si-port" data-si="port:planning-&gt;tool:in" cx="182.17" cy="410" r="3.5"></circle><circle class="si-port" data-si="port:done-&gt;end:out" cx="150" cy="758" r="3.5"></circle><circle class="si-port" data-si="port:done-&gt;end:in" cx="228" cy="814" r="3.5"></circle><circle class="si-port" data-si="port:failed-&gt;end:out" cx="306" cy="758" r="3.5"></circle><circle class="si-port" data-si="port:failed-&gt;end:in" cx="228" cy="814" r="3.5"></circle><circle class="si-port" data-si="port:tool-&gt;approval:out" cx="160.84" cy="452" r="3.5"></circle><circle class="si-port" data-si="port:tool-&gt;approval:in" cx="134" cy="545" r="3.5"></circle><circle class="si-port" data-si="port:approval-&gt;tool:out" cx="218" cy="575" r="3.5"></circle><circle class="si-port" data-si="port:approval-&gt;tool:in" cx="246.17" cy="431" r="3.5"></circle><circle class="si-port" data-si="port:queued-&gt;planning:out" cx="228" cy="148" r="3.5"></circle><circle class="si-port" data-si="port:queued-&gt;planning:in" cx="182.17" cy="275" r="3.5"></circle><circle class="si-port" data-si="port:tool-&gt;observe:out" cx="203.5" cy="452" r="3.5"></circle><circle class="si-port" data-si="port:tool-&gt;observe:in" cx="326" cy="554" r="3.5"></circle><circle class="si-port" data-si="port:running-&gt;done:out" cx="162.67" cy="623" r="3.5"></circle><circle class="si-port" data-si="port:running-&gt;done:in" cx="162.67" cy="716" r="3.5"></circle><circle class="si-port" data-si="port:running-&gt;failed:out" cx="293.33" cy="623" r="3.5"></circle><circle class="si-port" data-si="port:running-&gt;failed:in" cx="293.33" cy="716" r="3.5"></circle><circle class="si-port" data-si="port:observe-&gt;planning:out" cx="406" cy="575" r="3.5"></circle><circle class="si-port" data-si="port:observe-&gt;planning:in" cx="246.17" cy="296" r="3.5"></circle></g><g class="si-labels"><g class="si-lbl" data-si="label:queued-&gt;planning:label" data-box="185.7,169.25,84.6,21"><rect class="si-pill si-on-bg" x="185.7" y="169.25" width="84.6" height="21"></rect><text class="si-edge-label" x="228" y="183.55" text-anchor="middle">worker free</text></g><g class="si-lbl" data-si="label:observe-&gt;planning:label" data-box="302.39,285.5,71.4,21"><rect class="si-pill si-on-composite" x="302.39" y="285.5" width="71.4" height="21"></rect><text class="si-edge-label" x="338.09" y="299.8" text-anchor="middle">next step</text></g><g class="si-lbl" data-si="label:tool-&gt;approval:label" data-box="75.2,511.25,117.6,21"><rect class="si-pill si-on-composite" x="75.2" y="511.25" width="117.6" height="21"></rect><text class="si-edge-label" x="134" y="525.55" text-anchor="middle">needs permission</text></g><g class="si-lbl" data-si="label:approval-&gt;tool:label" data-box="205.6,507,64.8,21"><rect class="si-pill si-on-composite" x="205.6" y="507" width="64.8" height="21"></rect><text class="si-edge-label" x="238" y="521.3" text-anchor="middle">approved</text></g><g class="si-lbl" data-si="label:running-&gt;done:label" data-box="117.07,659,91.2,21"><rect class="si-pill si-on-bg" x="117.07" y="659" width="91.2" height="21"></rect><text class="si-edge-label" x="162.67" y="673.3" text-anchor="middle">answer ready</text></g><g class="si-lbl" data-si="label:running-&gt;failed:label" data-box="270.83,659,45,21"><rect class="si-pill si-on-bg" x="270.83" y="659" width="45" height="21"></rect><text class="si-edge-label" x="293.33" y="673.3" text-anchor="middle">error</text></g></g></svg>
