<?xml version="1.0" encoding="UTF-8"?>
<svg xmlns="http://www.w3.org/2000/svg" class="storyink" viewBox="0 0 396 1134" width="396" height="1134" role="img" aria-label="Flowchart" data-storyink="workflow"><style>svg.storyink{--si-bg:#e8e7e3;--si-panel:#e6e5e1;--si-panelAlt:#ecebe7;--si-line:#b7b5ad;--si-lineSoft:#cfcdc6;--si-ink:#3d3a34;--si-inkMuted:#6b675f;--si-inkFaint:#a39d91;--si-wire:#a9a79f;--si-port:#a39d91;--si-pill:#e8e7e3;--si-group:#e3e2de;--si-groupLine:#cfcdc6;--si-title:#1c1a17;--si-chrome:#ecebe7;--si-chromeLine:#cfcdc6;--si-rose:#c98f81;--si-roseFill:#d9d3c7;--si-blue:#7fa2bf;--si-blueFill:#d9d3c7;--si-gold:#bfa95a;--si-goldFill:#d9d3c7;--si-sage:#5f7a4f;--si-sageFill:#d9d3c7;--si-plain:#8a857c;--si-plainFill:#d9d3c7;--si-pulse:#2b2925;--si-pulseBloom:#3d3a34;--si-pulseBloomEdge:#8a857c;--si-glow:#f3d9b6;--si-glowCrest:#fffaf0;--si-glowGain:3;--si-glowBlend:screen;--si-flash:#141311;--si-portActive:#141311;--si-playInk:#a39e94;--si-playInkHover:#5e5b54;--si-control:#8f8a81;--si-controlHover:#26251f;--si-endedInk:#6f6a61;color-scheme:light;}
.storyink{font-family:"Commit Mono", ui-monospace, "SF Mono", Menlo, monospace;font-variant-ligatures:none;font-feature-settings:"calt" 0;}
.storyink text{font-family:"Commit Mono", ui-monospace, "SF Mono", Menlo, monospace;fill:var(--si-ink);}
.si-bg{fill:var(--si-bg);}
.si-a-rose{--si-accent:var(--si-rose);--si-accentFill:var(--si-roseFill);}.si-a-blue{--si-accent:var(--si-blue);--si-accentFill:var(--si-blueFill);}.si-a-gold{--si-accent:var(--si-gold);--si-accentFill:var(--si-goldFill);}.si-a-sage{--si-accent:var(--si-sage);--si-accentFill:var(--si-sageFill);}.si-a-plain{--si-accent:var(--si-plain);--si-accentFill:var(--si-plainFill);}
.si-face{fill:var(--si-panel);stroke:var(--si-line);stroke-width:1;}
.si-inset{fill:none;stroke:var(--si-lineSoft);stroke-width:1;}
.si-ink-bar{fill:var(--si-accent);}
.si-soft{fill:var(--si-accentFill);stroke:var(--si-accent);stroke-width:1;}
.si-dash{stroke-dasharray:4 3;}
.si-glyph{fill:none;stroke:var(--si-accent);stroke-width:1.2;stroke-linecap:round;stroke-linejoin:round;}
.si-dotfill{fill:var(--si-ink);}
.si-ring{fill:none;stroke:var(--si-ink);stroke-width:1.4;}
.si-note{fill:var(--si-goldFill);stroke:var(--si-gold);stroke-width:1;}
.si-note-fold{fill:none;stroke:var(--si-gold);stroke-width:1;}
.storyink .si-label{font-size:13px;fill:var(--si-ink);}
.storyink .si-detail{font-size:11px;fill:var(--si-inkMuted);}
.storyink .si-tag{font-size:10px;letter-spacing:0.08em;fill:var(--si-accent);}
.storyink .si-pill-label{font-size:12px;}
.si-group{fill:var(--si-group);stroke:var(--si-groupLine);stroke-width:1;}
.si-band{fill:var(--si-panelAlt);fill-opacity:0.75;stroke:none;}
.si-group-composite{fill:var(--si-panelAlt);stroke:var(--si-line);stroke-width:1;}
.storyink .si-group-label{font-size:10px;letter-spacing:0.08em;fill:var(--si-inkFaint);}
.storyink .si-group-title{font-size:12px;fill:var(--si-inkMuted);}
.si-group-rule{stroke:var(--si-groupLine);stroke-width:1;}
.si-wire{fill:none;stroke:var(--si-wire);stroke-width:1;stroke-linecap:round;stroke-linejoin:round;}
.si-wire.si-dashed{stroke-dasharray:3 5;}
.si-wire.si-thick{stroke-width:2;stroke:var(--si-port);}
.si-arrow{fill:var(--si-wire);stroke:var(--si-wire);stroke-width:1;stroke-linejoin:round;}
.si-arrow-open{fill:none;stroke:var(--si-wire);stroke-width:1;stroke-linecap:round;stroke-linejoin:round;}
.si-port{fill:var(--si-port);}
.si-pill{fill:var(--si-bg);stroke:none;}
.si-pill.si-on-group{fill:var(--si-group);}
.si-pill.si-on-composite{fill:var(--si-panelAlt);}
.storyink .si-edge-label{font-size:11px;letter-spacing:0.02em;fill:var(--si-inkMuted);}
.si-life{stroke:var(--si-line);stroke-width:1;stroke-dasharray:3 4;}
.si-act{fill:var(--si-panelAlt);stroke:var(--si-line);stroke-width:1;}
.si-frame{fill:none;stroke:var(--si-line);stroke-width:1;}
.si-frame-tag{fill:var(--si-panelAlt);stroke:var(--si-line);stroke-width:1;}
.storyink .si-frame-kind{font-size:10px;letter-spacing:0.08em;fill:var(--si-inkMuted);font-weight:700;}
.storyink .si-frame-label{font-size:11px;fill:var(--si-inkMuted);}
.si-frame-rule{stroke:var(--si-line);stroke-width:1;stroke-dasharray:4 4;}
.si-seq{fill:var(--si-ink);}
.si-pulse{fill:var(--si-pulse);}
.si-halo{fill:var(--si-pulseBloom);}
.si-ring-pulse{fill:none;stroke:var(--si-pulse);}
.si-trail{fill:none;stroke:var(--si-pulse);stroke-width:1.6;stroke-linecap:round;stroke-linejoin:round;}
.storyink .si-counter{font-size:15px;font-variant-numeric:tabular-nums lining-nums;fill:var(--si-ink);}
.storyink .si-counter-label{font-size:10px;letter-spacing:0.08em;fill:var(--si-inkMuted);}
.storyink .si-seq-text{font-size:8.5px;fill:var(--si-bg);font-weight:700;}</style><rect class="si-bg" x="0" y="0" width="396" height="1134"></rect><g class="si-bands"></g><g class="si-groups"><g class="si-grp" data-si="group:Mitigation"><rect class="si-group" x="73" y="501" width="234" height="362" rx="0"></rect><text class="si-group-label" x="85" y="516">MITIGATION</text></g></g><g class="si-frames"></g><g class="si-lifelines"></g><g class="si-activations"></g><g class="si-frame-labels"></g><g class="si-edges"><g class="si-edge" data-si="edge:alert-&gt;ack"><path class="si-wire" d="M190 66L190 122"></path></g><g class="si-edge" data-si="edge:ack-&gt;sev"><path class="si-wire" d="M190 164L190 220"></path></g><g class="si-edge" data-si="edge:sev-&gt;war"><path class="si-wire" d="M114 258L107 258Q100 258 100 265L100 389"></path></g><g class="si-edge" data-si="edge:sev-&gt;triage"><path class="si-wire" d="M266 258L273 258Q280 258 280 265L280 396"></path></g><g class="si-edge" data-si="edge:war-&gt;mitigate"><path class="si-wire" d="M100 445V478Q100 490 112 490H149.67Q161.67 490 161.67 502V535"></path></g><g class="si-edge" data-si="edge:triage-&gt;mitigate"><path class="si-wire" d="M280 438V478Q280 490 268 490H224.33Q212.33 490 212.33 502V535"></path></g><g class="si-edge" data-si="edge:mitigate-&gt;ok"><path class="si-wire" d="M187 577L187 633"></path></g><g class="si-edge" data-si="edge:ok-&gt;escalate"><path class="si-wire" d="M187 709L187 802"></path></g><g class="si-edge" data-si="edge:escalate-&gt;mitigate"><path class="si-wire" d="M277 823L295 823Q307 823 307 811L307 568Q307 556 295 556L263 556"></path></g><g class="si-edge" data-si="edge:ok-&gt;review"><path class="si-wire" d="M187 709L187 716Q187 723 194 723L279 723Q291 723 291 735L291 888Q291 900 279 900L199 900Q187 900 187 912L187 956"></path></g><g class="si-edge" data-si="edge:review-&gt;done"><path class="si-wire" d="M190 1012L190 1068"></path></g></g><g class="si-nodes"><g class="si-node si-a-sage" data-si="node:alert" data-box="124,32,132,34" transform="translate(124 32)"><rect class="si-soft" x="0" y="0" width="132" height="34" rx="17"></rect><text class="si-label si-pill-label" x="66" y="21.55" text-anchor="middle">Alert fires</text></g><g class="si-node si-a-blue" data-si="node:ack" data-box="96,122,188,42" transform="translate(96 122)"><rect class="si-face" x="0" y="0" width="188" height="42" rx="0"></rect><rect class="si-inset" x="4" y="4" width="180" height="34"></rect><rect class="si-ink-bar" x="5" y="5" width="2" height="32"></rect><text class="si-label" x="94" y="25.05" text-anchor="middle">Acknowledge in pager</text></g><g class="si-node si-a-gold" data-si="node:sev" data-box="114,220,152,76" transform="translate(114 220)"><polygon class="si-face" points="76,0 152,38 76,76 0,38" stroke-linejoin="round"></polygon><polygon class="si-inset" points="76,5 143.5,38 76,71 8.5,38" stroke-linejoin="round"></polygon><text class="si-label" x="76" y="42.55" text-anchor="middle">Severity?</text></g><g class="si-node si-a-blue" data-si="node:war" data-box="32,389,136,56" transform="translate(32 389)"><rect class="si-face" x="0" y="0" width="136" height="56" rx="0"></rect><rect class="si-inset" x="4" y="4" width="128" height="48"></rect><rect class="si-ink-bar" x="5" y="5" width="2" height="46"></rect><text class="si-tag" x="68" y="20.5" text-anchor="middle">SUBROUTINE</text><text class="si-label" x="68" y="39.05" text-anchor="middle">Open war room</text></g><g class="si-node si-a-blue" data-si="node:triage" data-box="196,396,168,42" transform="translate(196 396)"><rect class="si-face" x="0" y="0" width="168" height="42" rx="0"></rect><rect class="si-inset" x="4" y="4" width="160" height="34"></rect><rect class="si-ink-bar" x="5" y="5" width="2" height="32"></rect><text class="si-label" x="84" y="25.05" text-anchor="middle">Triage in channel</text></g><g class="si-node si-a-blue" data-si="node:mitigate" data-box="111,535,152,42" transform="translate(111 535)"><rect class="si-face" x="0" y="0" width="152" height="42" rx="0"></rect><rect class="si-inset" x="4" y="4" width="144" height="34"></rect><rect class="si-ink-bar" x="5" y="5" width="2" height="32"></rect><text class="si-label" x="76" y="25.05" text-anchor="middle">Mitigate impact</text></g><g class="si-node si-a-gold" data-si="node:ok" data-box="111,633,152,76" transform="translate(111 633)"><polygon class="si-face" points="76,0 152,38 76,76 0,38" stroke-linejoin="round"></polygon><polygon class="si-inset" points="76,5 143.5,38 76,71 8.5,38" stroke-linejoin="round"></polygon><text class="si-label" x="76" y="42.55" text-anchor="middle">Resolved?</text></g><g class="si-node si-a-sage" data-si="node:escalate" data-box="91,802,192,42" transform="translate(91 802)"><polygon class="si-face" points="10,0 192,0 182,42 0,42"></polygon><polygon class="si-inset" points="15,4 187,4 177,38 5,38"></polygon><text class="si-label" x="96" y="25.05" text-anchor="middle">Escalate to owner</text></g><g class="si-node si-a-sage" data-si="node:review" data-box="98,956,184,56" transform="translate(98 956)"><polygon class="si-face" points="10,0 184,0 174,56 0,56"></polygon><polygon class="si-inset" points="15,4 179,4 169,52 5,52"></polygon><text class="si-tag" x="92" y="20.5" text-anchor="middle">STORE</text><text class="si-label" x="92" y="39.05" text-anchor="middle">Write postmortem</text></g><g class="si-node si-a-rose" data-si="node:done" data-box="142,1068,96,34" transform="translate(142 1068)"><rect class="si-soft" x="0" y="0" width="96" height="34" rx="17"></rect><text class="si-label si-pill-label" x="48" y="21.55" text-anchor="middle">Closed</text></g></g><g class="si-ports"><circle class="si-port" data-si="port:alert-&gt;ack:out" cx="190" cy="66" r="3.5"></circle><circle class="si-port" data-si="port:alert-&gt;ack:in" cx="190" cy="122" r="3.5"></circle><circle class="si-port" data-si="port:review-&gt;done:out" cx="190" cy="1012" r="3.5"></circle><circle class="si-port" data-si="port:review-&gt;done:in" cx="190" cy="1068" r="3.5"></circle><circle class="si-port" data-si="port:ack-&gt;sev:out" cx="190" cy="164" r="3.5"></circle><circle class="si-port" data-si="port:ack-&gt;sev:in" cx="190" cy="220" r="3.5"></circle><circle class="si-port" data-si="port:mitigate-&gt;ok:out" cx="187" cy="577" r="3.5"></circle><circle class="si-port" data-si="port:mitigate-&gt;ok:in" cx="187" cy="633" r="3.5"></circle><circle class="si-port" data-si="port:ok-&gt;escalate:out" cx="187" cy="709" r="3.5"></circle><circle class="si-port" data-si="port:ok-&gt;escalate:in" cx="187" cy="802" r="3.5"></circle><circle class="si-port" data-si="port:war-&gt;mitigate:out" cx="100" cy="445" r="3.5"></circle><circle class="si-port" data-si="port:war-&gt;mitigate:in" cx="161.67" cy="535" r="3.5"></circle><circle class="si-port" data-si="port:triage-&gt;mitigate:out" cx="280" cy="438" r="3.5"></circle><circle class="si-port" data-si="port:triage-&gt;mitigate:in" cx="212.33" cy="535" r="3.5"></circle><circle class="si-port" data-si="port:sev-&gt;war:out" cx="114" cy="258" r="3.5"></circle><circle class="si-port" data-si="port:sev-&gt;war:in" cx="100" cy="389" r="3.5"></circle><circle class="si-port" data-si="port:sev-&gt;triage:out" cx="266" cy="258" r="3.5"></circle><circle class="si-port" data-si="port:sev-&gt;triage:in" cx="280" cy="396" r="3.5"></circle><circle class="si-port" data-si="port:escalate-&gt;mitigate:out" cx="277" cy="823" r="3.5"></circle><circle class="si-port" data-si="port:escalate-&gt;mitigate:in" cx="263" cy="556" r="3.5"></circle><circle class="si-port" data-si="port:ok-&gt;review:out" cx="187" cy="709" r="3.5"></circle><circle class="si-port" data-si="port:ok-&gt;review:in" cx="187" cy="956" r="3.5"></circle></g><g class="si-labels"><g class="si-lbl" data-si="label:sev-&gt;war:label" data-box="80.8,313,38.4,21"><rect class="si-pill si-on-bg" x="80.8" y="313" width="38.4" height="21"></rect><text class="si-edge-label" x="100" y="327.3" text-anchor="middle">SEV1</text></g><g class="si-lbl" data-si="label:sev-&gt;triage:label" data-box="254.2,316.5,51.6,21"><rect class="si-pill si-on-bg" x="254.2" y="316.5" width="51.6" height="21"></rect><text class="si-edge-label" x="280" y="330.8" text-anchor="middle">SEV2/3</text></g><g class="si-lbl" data-si="label:ok-&gt;escalate:label" data-box="174.4,745,25.2,21"><rect class="si-pill si-on-group" x="174.4" y="745" width="25.2" height="21"></rect><text class="si-edge-label" x="187" y="759.3" text-anchor="middle">no</text></g><g class="si-lbl" data-si="label:ok-&gt;review:label" data-box="275.1,765.6,31.8,21"><rect class="si-pill si-on-group" x="275.1" y="765.6" width="31.8" height="21"></rect><text class="si-edge-label" x="291" y="779.9" text-anchor="middle">yes</text></g></g></svg>
